Coordinates
nRows=108
nColumns=2
inDegrees=yes
endheader
time	ankle_angle_r	
3.07762	  9.246652	
3.14919	  9.252447	
3.22077	  9.287717	
3.29234	  9.296485	
3.36391	  9.240047	
3.43548	  9.202541	
3.50706	  9.250242	
3.57863	  9.273055	
3.6502	  9.212597	
3.72177	  9.219800	
3.79335	  9.318660	
3.86492	  9.314708	
3.93649	  9.213224	
4.00806	  9.211639	
4.07964	  9.286536	
4.15121	  9.292608	
4.22278	  9.253182	
4.29435	  9.229857	
4.36593	  9.218449	
4.4375	  9.260826	
4.50907	  9.322409	
4.58065	  9.330978	
4.65222	  9.351567	
4.72379	  9.360136	
4.79536	  9.325730	
4.86694	  9.328557	
4.93851	  9.356682	
5.01008	  9.359212	
5.08165	  9.329204	
5.15323	  9.322463	
5.2248	  9.359139	
5.29637	  9.370725	
5.36794	  9.336400	
5.43952	  9.328338	
5.51109	  9.368128	
5.58266	  9.338900	
5.65423	  9.278374	
5.72581	  9.287199	
5.79738	  9.296473	
5.86895	  9.285485	
5.94052	  9.254104	
6.0121	  9.248240	
6.08367	  9.320716	
6.15524	  9.372461	
6.22681	  9.349254	
6.29839	  9.340740	
6.36996	  9.377103	
6.44153	  9.356606	
6.5131	  9.317787	
6.58468	  9.348488	
6.65625	  9.374079	
6.72782	  9.346931	
6.7994	  9.327320	
6.87097	  9.344649	
6.94254	  9.316741	
7.01411	  9.250480	
7.08569	  9.235979	
7.15726	  9.276810	
7.22883	  9.295100	
7.3004	  9.232969	
7.37198	  9.199712	
7.44355	  9.251158	
7.51512	  9.291936	
7.58669	  9.288406	
7.65827	  9.311163	
7.72984	  9.382582	
7.80141	  9.382566	
7.87298	  9.325182	
7.94456	  9.328709	
8.01613	  9.364697	
8.0877	  9.358885	
8.15927	  9.316479	
8.23085	  9.325763	
8.30242	  9.340500	
8.37399	  9.289540	
8.44556	  9.253029	
8.51714	  9.234690	
8.58871	  9.265941	
8.66028	  9.319449	
8.73185	  9.267114	
8.80343	  9.235106	
8.875	  9.288491	
8.94657	  9.269148	
9.01815	  9.236343	
9.08972	  9.312465	
9.16129	  9.368946	
9.23286	  9.354591	
9.30444	  9.348086	
9.37601	  9.342457	
9.44758	  9.357528	
9.51915	  9.358830	
9.59073	  9.332308	
9.6623	  9.340711	
9.73387	  9.325555	
9.80544	  9.277556	
9.87702	  9.245859	
9.94859	  9.232954	
10.0202	  9.241885	
10.0917	  9.221568	
10.1633	  9.170812	
10.2349	  9.182086	
10.3065	  9.218003	
10.378	  9.188903	
10.4496	  9.181620	
10.5212	  9.216309	
10.5927	  9.217884	
10.6643	  9.212387	
10.7359	  9.201253	
